<svg width="2339" height="1024" viewBox="0 0 2339 1024" fill="none" xmlns="http://www.w3.org/2000/svg">
<path fill-rule="evenodd" clip-rule="evenodd" d="M425.974 651.634C438.548 636.545 457.175 627.821 476.816 627.821H743.636C816.739 627.821 876 568.56 876 495.457V429.275C876 356.173 816.739 296.912 743.636 296.912H691.907C672.266 296.912 653.639 305.636 641.065 320.725L598.026 372.371C585.452 387.46 566.825 396.185 547.184 396.185H280.364C207.261 396.185 148 455.446 148 528.548V594.73C148 667.832 207.261 727.094 280.364 727.094H332.093C351.734 727.094 370.361 718.369 382.935 703.28L425.974 651.634ZM776.727 429.275C776.727 411 761.912 396.185 743.636 396.185H642.271C622.629 396.185 604.003 404.909 591.428 419.998L548.39 471.644C535.816 486.733 517.189 495.457 497.548 495.457H280.364C262.088 495.457 247.273 510.273 247.273 528.548V594.73C247.273 613.006 262.088 627.821 280.364 627.821H381.729C401.371 627.821 419.998 619.097 432.572 604.008L475.61 552.361C488.184 537.273 506.811 528.548 526.452 528.548H743.636C761.912 528.548 776.727 513.733 776.727 495.457V429.275Z" fill="white"/>
<path d="M1188.11 654L1105.31 370H1165.71L1226.51 597.2H1208.11L1268.91 370H1329.31L1246.51 654H1188.11ZM1458.76 658.8C1438.76 658.8 1421.02 654.267 1405.56 645.2C1390.36 635.867 1378.36 622.8 1369.56 606C1361.02 589.2 1356.76 569.467 1356.76 546.8C1356.76 524.667 1361.02 505.2 1369.56 488.4C1378.09 471.6 1389.96 458.533 1405.16 449.2C1420.36 439.6 1437.96 434.8 1457.96 434.8C1477.69 434.8 1495.02 439.467 1509.96 448.8C1525.16 458.133 1537.02 471.333 1545.56 488.4C1554.09 505.2 1558.36 525.067 1558.36 548V561.6H1412.76C1414.09 577.6 1418.89 589.867 1427.16 598.4C1435.69 606.667 1446.62 610.8 1459.96 610.8C1469.82 610.8 1478.22 608.533 1485.16 604C1492.09 599.2 1496.89 592.8 1499.56 584.8L1553.96 588.4C1546.76 610.8 1535.02 628.133 1518.76 640.4C1502.76 652.667 1482.76 658.8 1458.76 658.8ZM1413.56 524.4H1500.36C1499.02 510.533 1494.49 500.133 1486.76 493.2C1479.02 486.267 1469.29 482.8 1457.56 482.8C1445.29 482.8 1435.29 486.4 1427.56 493.6C1420.09 500.533 1415.42 510.8 1413.56 524.4ZM1657 654V439.6H1697L1701.4 495.6H1697.8C1699.93 476.933 1705.27 462.933 1713.8 453.6C1722.6 444.267 1735.4 439.6 1752.2 439.6H1800.2V484H1756.2C1746.07 484 1737.67 485.733 1731 489.2C1724.33 492.667 1719.4 497.867 1716.2 504.8C1713 511.733 1711.4 520.4 1711.4 530.8V654H1657ZM1605.8 654V610.8H1776.6V654H1605.8ZM1605.8 482.8V439.6H1689.4V482.8H1605.8ZM1936.84 658.8C1916.58 658.8 1898.84 654.267 1883.64 645.2C1868.44 635.867 1856.58 622.8 1848.04 606C1839.51 589.2 1835.24 569.467 1835.24 546.8C1835.24 523.867 1839.51 504.133 1848.04 487.6C1856.58 470.8 1868.44 457.867 1883.64 448.8C1898.84 439.467 1916.58 434.8 1936.84 434.8C1957.11 434.8 1974.84 439.467 1990.04 448.8C2005.24 457.867 2017.11 470.8 2025.64 487.6C2034.18 504.133 2038.44 523.867 2038.44 546.8C2038.44 569.467 2034.18 589.2 2025.64 606C2017.11 622.8 2005.24 635.867 1990.04 645.2C1974.84 654.267 1957.11 658.8 1936.84 658.8ZM1936.84 610.8C1951.24 610.8 1962.31 605.333 1970.04 594.4C1978.04 583.2 1982.04 567.333 1982.04 546.8C1982.04 526 1978.04 510.133 1970.04 499.2C1962.31 488.267 1951.24 482.8 1936.84 482.8C1922.44 482.8 1911.24 488.267 1903.24 499.2C1895.51 510.133 1891.64 526 1891.64 546.8C1891.64 567.333 1895.51 583.2 1903.24 594.4C1911.24 605.333 1922.44 610.8 1936.84 610.8Z" fill="white"/>
</svg>
