<svg width="1024" height="1024" viewBox="0 0 1024 1024" fill="none" xmlns="http://www.w3.org/2000/svg">
<path fill-rule="evenodd" clip-rule="evenodd" d="M425.974 651.634C438.548 636.545 457.175 627.821 476.816 627.821H743.636C816.739 627.821 876 568.56 876 495.457V429.275C876 356.173 816.739 296.912 743.636 296.912H691.907C672.266 296.912 653.639 305.636 641.065 320.725L598.026 372.371C585.452 387.46 566.825 396.185 547.184 396.185H280.364C207.261 396.185 148 455.446 148 528.548V594.73C148 667.832 207.261 727.094 280.364 727.094H332.093C351.734 727.094 370.361 718.369 382.935 703.28L425.974 651.634ZM776.727 429.275C776.727 411 761.912 396.185 743.636 396.185H642.271C622.629 396.185 604.003 404.909 591.428 419.998L548.39 471.644C535.816 486.733 517.189 495.457 497.548 495.457H280.364C262.088 495.457 247.273 510.273 247.273 528.548V594.73C247.273 613.006 262.088 627.821 280.364 627.821H381.729C401.371 627.821 419.998 619.097 432.572 604.008L475.61 552.361C488.184 537.273 506.811 528.548 526.452 528.548H743.636C761.912 528.548 776.727 513.733 776.727 495.457V429.275Z" fill="white"/>
</svg>
