<svg width="1891" height="431" viewBox="0 0 1891 431" fill="none" xmlns="http://www.w3.org/2000/svg">
<g clip-path="url(#clip0_82_48)">
<path fill-rule="evenodd" clip-rule="evenodd" d="M277.974 355.634C290.548 340.545 309.175 331.821 328.816 331.821H595.636C668.739 331.821 728 272.56 728 199.457V133.275C728 60.1729 668.739 0.911743 595.636 0.911743H543.907C524.266 0.911743 505.639 9.63603 493.065 24.725L450.026 76.3712C437.452 91.4602 418.825 100.184 399.184 100.184H132.364C59.2612 100.184 0 159.446 0 232.548V298.73C0 371.832 59.2612 431.094 132.364 431.094H184.093C203.734 431.094 222.361 422.369 234.935 407.28L277.974 355.634ZM628.727 133.275C628.727 115 613.912 100.184 595.636 100.184H494.271C474.629 100.184 456.003 108.909 443.428 123.998L400.39 175.644C387.816 190.733 369.189 199.457 349.548 199.457H132.364C114.088 199.457 99.2727 214.273 99.2727 232.548V298.73C99.2727 317.006 114.088 331.821 132.364 331.821H233.729C253.371 331.821 271.998 323.097 284.572 308.008L327.61 256.361C340.184 241.272 358.811 232.548 378.452 232.548H595.636C613.912 232.548 628.727 217.733 628.727 199.457V133.275Z" fill="white"/>
<path d="M1040.11 358L957.313 74H1017.71L1078.51 301.2H1060.11L1120.91 74H1181.31L1098.51 358H1040.11ZM1310.76 362.8C1290.76 362.8 1273.02 358.267 1257.56 349.2C1242.36 339.867 1230.36 326.8 1221.56 310C1213.02 293.2 1208.76 273.467 1208.76 250.8C1208.76 228.667 1213.02 209.2 1221.56 192.4C1230.09 175.6 1241.96 162.533 1257.16 153.2C1272.36 143.6 1289.96 138.8 1309.96 138.8C1329.69 138.8 1347.02 143.467 1361.96 152.8C1377.16 162.133 1389.02 175.333 1397.56 192.4C1406.09 209.2 1410.36 229.067 1410.36 252V265.6H1264.76C1266.09 281.6 1270.89 293.867 1279.16 302.4C1287.69 310.667 1298.62 314.8 1311.96 314.8C1321.82 314.8 1330.22 312.533 1337.16 308C1344.09 303.2 1348.89 296.8 1351.56 288.8L1405.96 292.4C1398.76 314.8 1387.02 332.133 1370.76 344.4C1354.76 356.667 1334.76 362.8 1310.76 362.8ZM1265.56 228.4H1352.36C1351.02 214.533 1346.49 204.133 1338.76 197.2C1331.02 190.267 1321.29 186.8 1309.56 186.8C1297.29 186.8 1287.29 190.4 1279.56 197.6C1272.09 204.533 1267.42 214.8 1265.56 228.4ZM1509 358V143.6H1549L1553.4 199.6H1549.8C1551.93 180.933 1557.27 166.933 1565.8 157.6C1574.6 148.267 1587.4 143.6 1604.2 143.6H1652.2V188H1608.2C1598.07 188 1589.67 189.733 1583 193.2C1576.33 196.667 1571.4 201.867 1568.2 208.8C1565 215.733 1563.4 224.4 1563.4 234.8V358H1509ZM1457.8 358V314.8H1628.6V358H1457.8ZM1457.8 186.8V143.6H1541.4V186.8H1457.8ZM1788.84 362.8C1768.58 362.8 1750.84 358.267 1735.64 349.2C1720.44 339.867 1708.58 326.8 1700.04 310C1691.51 293.2 1687.24 273.467 1687.24 250.8C1687.24 227.867 1691.51 208.133 1700.04 191.6C1708.58 174.8 1720.44 161.867 1735.64 152.8C1750.84 143.467 1768.58 138.8 1788.84 138.8C1809.11 138.8 1826.84 143.467 1842.04 152.8C1857.24 161.867 1869.11 174.8 1877.64 191.6C1886.18 208.133 1890.44 227.867 1890.44 250.8C1890.44 273.467 1886.18 293.2 1877.64 310C1869.11 326.8 1857.24 339.867 1842.04 349.2C1826.84 358.267 1809.11 362.8 1788.84 362.8ZM1788.84 314.8C1803.24 314.8 1814.31 309.333 1822.04 298.4C1830.04 287.2 1834.04 271.333 1834.04 250.8C1834.04 230 1830.04 214.133 1822.04 203.2C1814.31 192.267 1803.24 186.8 1788.84 186.8C1774.44 186.8 1763.24 192.267 1755.24 203.2C1747.51 214.133 1743.64 230 1743.64 250.8C1743.64 271.333 1747.51 287.2 1755.24 298.4C1763.24 309.333 1774.44 314.8 1788.84 314.8Z" fill="white"/>
</g>
<defs>
<clipPath id="clip0_82_48">
<rect width="1891" height="431" fill="white"/>
</clipPath>
</defs>
</svg>
